<?xml version="1.0" standalone="no"?>
<!DOCTYPE svg PUBLIC "-//W3C//DTD SVG 20010904//EN"
 "http://www.w3.org/TR/2001/REC-SVG-20010904/DTD/svg10.dtd">
<svg version="1.0" xmlns="http://www.w3.org/2000/svg"
 width="400.000000pt" height="400.000000pt" viewBox="0 0 400.000000 400.000000"
 preserveAspectRatio="xMidYMid meet">
<metadata>
Created by potrace 1.14, written by Peter Selinger 2001-2017
</metadata>
<g transform="translate(0.000000,400.000000) scale(0.100000,-0.100000)"
fill="#000000" stroke="none">
<path d="M0 2000 l0 -2000 2000 0 2000 0 0 2000 0 2000 -2000 0 -2000 0 0
-2000z m2347 1248 c-8 -18 -75 -178 -151 -355 l-136 -323 0 -140 c0 -105 -3
-140 -12 -140 -22 0 -823 -52 -825 -54 -1 -1 34 -359 77 -796 44 -437 77 -796
75 -799 -3 -2 -5 0 -5 6 0 8 -454 2372 -464 2414 -2 11 2 15 13 13 75 -18
1139 -234 1151 -234 8 1 49 58 94 133 181 301 215 352 183 275z m292 -191
l180 -224 136 -39 c117 -34 135 -42 135 -59 0 -21 -30 -249 -33 -251 -1 -1
-56 3 -122 10 l-120 11 0 105 0 105 -74 115 c-235 364 -290 450 -286 450 2 0
85 -101 184 -223z m-327 -556 l-67 -695 -248 -62 c-137 -34 -250 -64 -252 -66
-5 -5 -305 -994 -305 -1005 0 -3 -2 -4 -5 -1 -3 3 38 207 90 454 l96 449 -22
293 c-12 161 -19 296 -15 300 4 3 132 13 284 22 l277 15 115 524 c63 288 116
511 117 495 2 -16 -28 -341 -65 -723z m274 359 c80 -212 150 -393 155 -402 8
-16 25 -18 119 -18 60 0 111 -3 113 -7 5 -10 -37 -281 -45 -289 -8 -7 -300
-46 -305 -40 -3 2 1 84 8 183 l12 178 -102 375 c-56 206 -105 384 -108 395
-20 69 24 -37 153 -375z m314 -802 c-1 -42 -41 -333 -48 -339 -4 -4 -94 -35
-201 -69 -107 -34 -200 -64 -206 -67 -9 -3 -11 42 -8 184 2 103 6 202 9 219
l4 31 188 25 c221 30 262 33 262 16z m-546 -455 c-4 -76 -10 -145 -15 -153 -4
-9 -75 -40 -158 -69 -121 -43 -157 -60 -179 -85 -15 -17 -137 -172 -271 -344
-135 -171 -246 -310 -248 -308 -2 2 91 148 207 325 l210 322 0 169 0 170 28 7
c47 12 417 101 424 102 5 1 5 -61 2 -136z"/>
</g>
</svg>
